<?xml version="1.0" encoding="iso-8859-1"?>
<!-- Uploaded to: SVG Repo, www.svgrepo.com, Generator: SVG Repo Mixer Tools -->
<svg version="1.1" id="Layer_1" xmlns="http://www.w3.org/2000/svg" xmlns:xlink="http://www.w3.org/1999/xlink" 
	 viewBox="0 0 512 512" xml:space="preserve">
<g>
	<rect x="11.253" y="382.591" style="fill:#0E0A57;" width="62.757" height="118.491"/>
	<rect x="437.991" y="382.591" style="fill:#0E0A57;" width="62.757" height="118.491"/>
</g>
<path style="fill:#FFB367;" d="M456.243,136.476h-50.95v16.879h50.95c4.662,0,8.44-3.779,8.44-8.44S460.905,136.476,456.243,136.476
	z"/>
<path style="fill:#E42105;" d="M427.796,136.476l-13.942-75.765c-5.041-27.389-31.958-49.793-59.808-49.793h-196.09
	c-27.851,0-54.767,22.404-59.808,49.793L72.22,201.562L172.28,374.314H339.72L439.78,201.562L427.796,136.476z"/>
<path style="fill:#FFFFFF;" d="M397.254,63.768c-3.588-19.498-23.376-35.971-43.208-35.971h-196.09
	c-19.833,0-39.619,16.473-43.208,35.969l-13.383,72.71H247.56l8.441,11.253l8.44-11.253h146.198L397.254,63.768z"/>
<path style="fill:#E42105;" d="M27.187,405.09L256,382.585l228.813,22.505c-15.394,7.562-31.001,14.392-46.823,20.446
	c-58.199,22.28-119.178,34.13-181.991,34.13s-123.791-11.849-181.991-34.13C58.188,419.483,42.58,412.652,27.187,405.09z"/>
<g>
	<path style="fill:#FF7039;" d="M256,298.364c-4.661,0-8.44,3.779-8.44,8.44v67.517h16.879v-67.517
		C264.44,302.142,260.662,298.364,256,298.364z"/>
	<path style="fill:#FF7039;" d="M130.543,219.814l41.736,143.247l-86.14,11.253L0,363.061v-99.823
		c0-30.022,24.452-56.984,54.34-59.921l17.881-1.755l27.389-2.678C112.888,197.579,126.807,206.997,130.543,219.814z"/>
	<path style="fill:#FF7039;" d="M512,263.238v99.823l-86.14,11.253l-86.14-11.253l41.736-143.247
		c3.736-12.817,17.656-22.235,30.934-20.93l27.389,2.678l17.881,1.755C487.548,206.254,512,233.216,512,263.238z"/>
	<path style="fill:#FF7039;" d="M247.56,136.476v119.69c0,4.661,3.779,8.44,8.44,8.44c4.662,0,8.44-3.779,8.44-8.44v-119.69H247.56z
		"/>
</g>
<g>
	<circle style="fill:#FFFFFF;" cx="74.009" cy="280.911" r="32.151"/>
	<circle style="fill:#FFFFFF;" cx="437.991" cy="280.911" r="32.151"/>
</g>
<path style="fill:#FFB367;" d="M0,363.061v30.776c0,6.189,5.064,11.253,11.253,11.253h489.495c6.189,0,11.253-5.064,11.253-11.253
	v-30.776H0z"/>
</svg>