<?xml version="1.0" encoding="iso-8859-1"?>

<!DOCTYPE svg PUBLIC "-//W3C//DTD SVG 1.1//EN" "http://www.w3.org/Graphics/SVG/1.1/DTD/svg11.dtd">
<!-- Uploaded to: SVG Repo, www.svgrepo.com, Generator: SVG Repo Mixer Tools -->
<svg height="800px" width="800px" version="1.1" id="_x36_" xmlns="http://www.w3.org/2000/svg" xmlns:xlink="http://www.w3.org/1999/xlink" 
	 viewBox="0 0 512 512"  xml:space="preserve">
<g>
	<g>
		<g>
			<g>
				<g>
					<path style="fill:#673A1B;" d="M46.844,274.058c-3.639,0.647-7.344,0.13-10.786-1.431c-4.092-1.688-7.861-4.743-11.11-8.772
						c-4.679-5.717-8.251-13.385-9.876-22.153c-2.338-12.864-0.067-25.015,5.393-32.876c1.234-1.754,2.598-3.249,4.093-4.549
						c0.713-0.584,1.427-1.17,2.208-1.624c1.951-1.298,4.093-2.144,6.434-2.598c12.148-2.208,24.625,8.772,30.078,25.469
						c0.717,2.208,1.3,4.549,1.757,6.951C68.804,252.875,60.682,271.523,46.844,274.058z"/>
				</g>
				<polygon style="fill:#673A1B;" points="42.333,209.784 13.689,196.615 0,207.906 				"/>
			</g>
			<g>
				<g>
					<path style="fill:#673A1B;" d="M252.964,232.451c-3.781,20.434,4.334,39.069,18.134,41.616
						c13.787,2.551,28.038-11.947,31.819-32.381c3.775-20.437-4.339-39.069-18.134-41.623
						C270.99,197.513,256.745,212.011,252.964,232.451z"/>
				</g>
				<path style="fill:#BE8A69;" d="M271.903,120.397l32.359,76.212l-0.134,0.066c-0.71,0.391-5.197,3.055-10.716,7.601
					c-1.821,1.431-3.705,3.119-5.653,5.003c-8.966,8.575-18.26,21.182-18.26,36.254c0,15.723,5.456,24.298,12.41,27.093l0.064,0.066
					c1.174,0.453,2.405,0.777,3.642,0.908c0.584,0.066,1.105,0.13,1.624,0.13c1.105,0.066,2.271-0.064,3.376-0.324
					c-11.174,20.659-42.942,101.096-46.585,112.076c-4.156,12.41,0,45.61,0,45.61l11.434,23.844l-15.589,48.792l-80.891,8.251
					l-78.873-8.055l-2.018-0.197l-0.844-2.662l-14.745-46.13l11.434-23.844c0,0,4.156-33.2,0-45.61
					c-3.642-10.98-35.411-91.417-46.585-112.076c2.989,0.583,5.977,0.39,8.705-0.78c6.951-2.795,12.41-11.37,12.41-27.093
					c0-1.624-0.13-3.249-0.327-4.873c-1.687-12.931-9.939-23.714-17.93-31.381c-1.951-1.885-3.836-3.572-5.653-5.003
					c-5.523-4.546-10.006-7.211-10.72-7.601c-0.067-0.066-0.131-0.066-0.131-0.066l32.356-76.212c0,0-42.102-22.283-45.09-60.162
					C-2.795,13.194,29.17,0.006,29.17,0.006l63.935,67.7h131.757l63.938-67.7c0,0,0,0,0.063,0.064
					c1.105,0.457,13.382,6.043,21.439,21.443c4.74,9.162,8.121,21.699,6.758,38.722C314.008,98.114,271.903,120.397,271.903,120.397
					z"/>
				<polygon style="fill:#926050;" points="93.13,67.732 92.508,107.873 123.236,94.072 130.762,137.348 174.033,97.838 
					176.546,124.179 224.837,67.732 180.303,30.107 172.149,48.919 128.883,22.578 130.762,47.038 86.074,37.632 				"/>
				<path style="fill:#673A1B;" d="M198.391,466.365c0,12.598,7.9,22.813,17.639,22.813c9.733,0,17.626-10.215,17.626-22.813
					c0-12.604-7.893-22.816-17.626-22.816C206.291,443.549,198.391,453.761,198.391,466.365z"/>
				<polygon style="fill:#673A1B;" points="275.634,209.784 304.281,196.615 317.967,207.906 				"/>
			</g>
		</g>
		<path style="fill:#673A1B;" d="M119.576,466.365c0,12.598-7.899,22.813-17.639,22.813c-9.733,0-17.626-10.215-17.626-22.813
			c0-12.604,7.893-22.816,17.626-22.816C111.676,443.549,119.576,453.761,119.576,466.365z"/>
	</g>
	<path style="opacity:0.12;fill:#673A1B;" d="M317.967,207.906l-13.686-11.291l-32.41-76.199c0,0,42.124-22.277,45.157-60.203
		C320.791,13.169,288.806,0,288.806,0l-63.969,67.732l-44.534-37.625l-8.153,18.812l-13.166-8.017V512l80.903-8.299l15.558-48.747
		l-11.415-23.85c0,0-4.143-33.193,0-45.639c3.655-10.967,35.436-91.414,46.59-112.047c-2.956,0.613-5.919,0.368-8.667-0.739
		c9.746-4.191,18.184-15.973,20.963-30.991c2.374-12.855,0.038-24.996-5.456-32.867L317.967,207.906z"/>
	<g>
		<polygon style="fill:#FAF6BF;" points="158.983,177.342 158.983,295.393 101.601,185.541 		"/>
		<polygon style="fill:#FAF6BF;" points="158.983,177.342 158.983,295.393 216.366,185.541 		"/>
	</g>
</g>
</svg>